# xmcd CD database file
#
# Track frame offsets:
#	150
#	28652
#	75124
#	100816
#	136791
#	159981
#	179286
#	199624
#	219508
#
# Disc length: 3272 seconds
#
# Revision: 0
# Processed by: cddbd v1.5.2PL0 Copyright (c) Steve Scherf et al.
# Submitted via: CDex 1.70beta2
#
DISCID=640cc609
DTITLE=Billy Cobham - The Art of Four (B.C., d - Ron Carter, b - Donald Harrisom, a sax - James Williams, p)
DYEAR=2001
DGENRE=Jazz
TTITLE0=Good For The Soul
TTITLE1=New Waltz
TTITLE2=Alter Ego
TTITLE3=The Song Is You
TTITLE4=Last Resort
TTITLE5=If I Were A Bell
TTITLE6=Four Play
TTITLE7=Cissy Strut
TTITLE8=Mushu Blues
EXTD=YEAR: 2001
EXTT0=
EXTT1=
EXTT2=
EXTT3=
EXTT4=
EXTT5=
EXTT6=
EXTT7=
EXTT8=
PLAYORDER=
